<?xml version="1.0" encoding="UTF-8" standalone="no"?>
<svg
   width="1000"
   height="260"
   viewBox="0 0 1000 260"
   version="1.1"
   id="svg4"
   xmlns="http://www.w3.org/2000/svg"
   xmlns:svg="http://www.w3.org/2000/svg">
  <defs
     id="defs3">
    <filter
       id="softShadow"
       x="-20%"
       y="-40%"
       width="140%"
       height="180%">
      <feDropShadow
         dx="0"
         dy="6"
         stdDeviation="6"
         flood-color="#000000"
         flood-opacity="0.45" />
    </filter>
    <linearGradient
       id="sigGold"
       x1="0"
       x2="1"
       y1="0"
       y2="0">
      <stop
         offset="0"
         stop-color="#E7B94B"
         id="stop1" />
      <stop
         offset="0.55"
         stop-color="#F4D37A"
         id="stop2" />
      <stop
         offset="1"
         stop-color="#B9821D"
         id="stop3" />
    </linearGradient>
  </defs>
  <rect
     width="1000"
     height="260"
     fill="none"
     id="rect3" />
  <g
     id="g4">
    <path
       d="m 80.714,143.938 c 2.714,0.826 4.012,1.062 6.254,1.062 8.024,0 13.57,-4.248 29.028,-21.948 9.322,0 16.284,0.118 20.886,0.472 -0.236,1.416 -0.472,2.832 -0.59,4.248 -0.236,1.18 -0.59,3.658 -0.944,6.254 -0.236,2.242 -0.59,4.366 -0.708,4.838 -0.354,2.006 -0.59,3.894 -0.59,5.074 0,1.534 1.18,2.596 2.714,2.596 0.472,0 3.658,-0.59 9.558,-1.652 l 6.726,-1.18 c 0.826,-0.118 2.124,-0.354 4.13,-0.708 l 1.888,-2.832 c -4.838,0.354 -7.788,0.59 -8.732,0.59 -4.72,0 -6.018,-1.18 -6.018,-5.31 0,-7.552 4.602,-40.592 8.378,-59.354 l -1.652,-1.18 c -3.54,3.658 -3.776,3.776 -6.254,3.776 -1.534,0 -2.124,-0.118 -6.726,-0.826 -5.31,-0.826 -8.378,-1.18 -10.738,-1.18 -5.428,0 -11.092,2.714 -16.638,8.142 -6.254,6.018 -8.968,11.21 -8.968,17.464 0,2.832 0.354,4.72 1.652,8.142 l 8.732,-4.72 c -1.888,-5.546 -2.478,-8.26 -2.478,-10.974 0,-6.726 5.074,-10.738 13.688,-10.738 1.298,0 2.832,0.118 4.366,0.236 l 2.832,0.354 c 1.652,0.118 2.832,0.236 3.658,0.354 1.888,0.236 2.95,0.236 6.136,0.472 l -20.414,26.432 c -4.956,6.372 -12.626,15.34 -15.812,18.408 -4.72,4.602 -8.26,6.254 -13.688,6.254 -2.006,0 -3.068,-0.118 -5.192,-0.826 z m 38.94,-25.724 22.774,-29.854 -4.838,29.854 z m 42.39603,28.792 3.776,-3.186 c 3.304,1.298 5.782,1.77 8.024,1.77 3.068,0 3.776,-0.354 11.092,-4.956 5.31,-2.95 5.31,-2.95 6.018,-3.422 3.186,-2.006 5.428,-4.484 7.198,-7.67 3.776,-6.844 6.608,-17.11 6.608,-24.072 0,-5.428 -2.714,-8.968 -6.962,-8.968 -4.012,0 -7.198,1.77 -18.998,10.148 0.944,-4.13 0.944,-4.13 2.242,-10.03 2.36,-11.682 2.596,-12.39 4.956,-17.7 2.242,-5.074 4.484,-6.608 9.912,-6.608 h 4.838 l 4.838,-6.844 c -2.36,-0.236 -3.894,-0.354 -5.192,-0.354 -4.366,0 -6.49,1.18 -16.402,9.44 -8.024,6.49 -8.024,6.49 -12.154,24.78 -2.242,9.794 -4.366,18.88 -6.726,29.264 -2.124,9.322 -2.36,10.384 -4.248,17.936 z m 15.576,-35.518 c 6.726,-4.956 10.856,-7.08 13.57,-7.08 2.36,0 3.894,2.124 3.894,5.782 0,4.72 -1.416,11.8 -3.422,16.874 -3.186,7.906 -7.316,11.8 -12.508,11.8 -2.36,0 -4.602,-0.59 -7.788,-2.242 z m 29.88802,34.574 8.378,-3.422 6.962,-27.494 c 1.18,-0.826 2.242,-1.416 2.832,-1.77 3.068,-2.006 5.192,-3.304 5.664,-3.54 7.788,-4.248 7.788,-4.248 8.85,-4.248 0.708,0 1.298,0.708 1.298,1.77 0,1.652 -0.472,3.894 -2.124,10.148 -3.422,13.334 -5.074,21.004 -5.074,24.19 0,1.534 0.472,2.832 1.77,5.074 6.49,-3.304 15.104,-8.732 21.476,-13.452 l 0.826,-3.422 c -9.794,5.782 -11.682,6.726 -13.216,6.726 -1.062,0 -1.77,-1.18 -1.77,-3.068 0,-3.186 0.59,-5.546 5.31,-22.892 3.068,-11.446 3.068,-11.446 3.068,-12.154 0,-1.18 -0.944,-2.006 -2.478,-2.006 -2.596,0 -10.266,4.248 -25.37,14.042 l 4.012,-15.812 c 2.832,-11.564 4.012,-15.222 5.546,-18.172 1.652,-3.304 4.13,-4.838 7.316,-4.838 1.534,0 2.478,0.118 7.08,1.062 l 5.074,-7.198 c -2.124,-0.472 -3.068,-0.59 -4.956,-0.59 -6.372,0 -9.794,1.77 -18.408,9.322 -6.136,5.428 -7.08,7.434 -10.738,23.01 z m 73.78406,-73.75 c -3.304,2.596 -6.018,4.72 -8.142,6.136 0.826,2.478 1.888,4.484 4.484,8.26 3.304,-2.95 3.658,-3.304 7.67,-6.372 -0.354,-0.708 -0.59,-1.18 -1.534,-2.714 -0.708,-1.416 -0.826,-1.416 -1.77,-3.776 z m 4.484,59 -2.006,1.062 c -8.142,4.484 -9.558,5.074 -10.974,5.074 -1.298,0 -2.124,-1.298 -2.124,-3.304 0,-2.006 0,-2.006 3.894,-17.582 4.366,-17.936 4.366,-17.936 4.366,-18.88 0,-0.708 -0.59,-1.18 -1.416,-1.18 -2.006,0 -8.968,3.894 -18.644,10.384 l -0.236,3.304 c 7.198,-3.894 7.552,-4.012 8.614,-4.012 0.944,0 1.416,0.708 1.416,2.006 0,1.652 -0.354,3.304 -2.124,10.03 -5.546,20.532 -5.546,20.532 -5.546,23.6 0,2.832 1.062,4.72 2.832,4.72 2.006,0 5.192,-1.534 11.446,-5.546 2.242,-1.416 4.484,-2.832 6.726,-4.366 1.062,-0.59 1.888,-1.18 3.304,-2.006 z m 19.85797,-44.604 c 3.186,-2.95 3.54,-3.186 6.372,-5.31 0.354,-0.354 0.826,-0.708 1.298,-1.062 -1.652,-2.95 -2.714,-5.074 -3.422,-6.49 -0.118,-0.472 -0.472,-1.298 -0.59,-1.534 -3.304,2.596 -6.018,4.602 -8.142,6.136 0.708,2.478 2.124,5.074 4.484,8.26 z m -43.778,86.73 c 2.478,0.59 3.658,0.708 5.664,0.708 5.9,0 8.85,-1.416 14.868,-7.316 10.62,-10.502 11.21,-11.564 17.582,-36.816 6.49,-25.606 7.67,-30.798 7.67,-32.096 0,-0.826 -0.708,-1.416 -1.77,-1.416 -1.77,0 -3.54,0.944 -15.458,8.378 l -3.186,2.006 -0.236,3.422 c 1.888,-0.944 2.596,-1.298 4.13,-2.242 2.714,-1.534 3.304,-1.888 4.248,-1.888 0.826,0 1.416,0.708 1.416,1.416 0,1.416 -2.95,14.632 -5.546,25.016 -7.906,31.388 -9.322,34.22 -17.464,34.22 -1.534,0 -2.36,-0.118 -6.372,-0.472 z M 334.22999,72.312 c -3.304,2.596 -6.018,4.72 -8.142,6.136 0.826,2.478 1.888,4.484 4.484,8.26 3.304,-2.95 3.658,-3.304 7.67,-6.372 -0.354,-0.708 -0.59,-1.18 -1.534,-2.714 -0.708,-1.416 -0.826,-1.416 -1.77,-3.776 z m 4.484,59 -2.006,1.062 c -8.142,4.484 -9.558,5.074 -10.974,5.074 -1.298,0 -2.124,-1.298 -2.124,-3.304 0,-2.006 0,-2.006 3.894,-17.582 4.366,-17.936 4.366,-17.936 4.366,-18.88 0,-0.708 -0.59,-1.18 -1.416,-1.18 -2.006,0 -8.968,3.894 -18.644,10.384 l -0.236,3.304 c 7.198,-3.894 7.552,-4.012 8.614,-4.012 0.944,0 1.416,0.708 1.416,2.006 0,1.652 -0.354,3.304 -2.124,10.03 -5.546,20.532 -5.546,20.532 -5.546,23.6 0,2.832 1.062,4.72 2.832,4.72 2.006,0 5.192,-1.534 11.446,-5.546 2.242,-1.416 4.484,-2.832 6.726,-4.366 1.062,-0.59 1.888,-1.18 3.304,-2.006 z m 32.95598,-1.18 c -8.968,5.428 -12.744,7.316 -14.396,7.316 -1.534,0 -3.422,-2.95 -3.422,-5.546 0,-1.652 0.118,-2.006 2.714,-13.216 0.59,-2.124 1.062,-4.366 1.534,-6.608 0.118,-0.354 0.59,-2.242 0.826,-3.304 4.012,-0.118 7.67,-0.354 11.682,-0.59 l 4.484,-3.422 h -15.104 c 0.59,-2.714 0.826,-3.54 1.18,-5.31 0.354,-1.18 1.18,-4.366 2.832,-10.738 l 0.708,-3.068 -2.006,1.062 c -0.708,0.236 -1.652,0.708 -2.95,1.298 -0.826,0.472 -1.77,0.826 -2.714,1.298 -0.472,0.236 -0.944,0.472 -1.652,0.708 l -1.062,4.838 -1.298,5.664 -0.944,4.248 c -1.062,0.118 -1.77,0.118 -2.124,0.118 h -2.832 c -0.236,0 -0.826,0 -1.77,0.118 -0.59,0.354 -1.062,0.708 -1.18,0.708 -0.354,0.236 -1.062,0.826 -2.242,1.77 -0.236,0.118 -0.826,0.708 -1.77,1.298 h 2.832 5.428 2.596 l -1.18,5.192 c -5.074,20.886 -5.074,20.886 -5.074,24.662 0,3.776 2.478,7.906 4.72,7.906 2.596,0 10.62,-4.838 21.948,-13.452 z m 27.08988,9.912 -4.838,4.838 h 8.26 c 31.388,0 32.45,-0.118 42.244,-4.72 l 0.236,-1.062 c -6.608,0.708 -9.44,0.826 -19.824,0.944 0.354,-1.534 0.708,-3.068 1.062,-4.484 0.472,-2.006 0.944,-4.012 1.534,-6.962 1.534,-6.372 1.652,-7.08 2.95,-11.918 7.788,-0.472 14.278,-2.36 21.476,-6.254 8.496,-4.602 13.806,-12.862 13.806,-21.594 0,-8.142 -6.49,-11.918 -20.414,-11.918 -1.298,0 -2.478,0 -4.956,0.118 l 0.708,-2.95 -7.906,4.012 c -9.322,0.944 -14.632,2.478 -20.414,6.018 -9.322,5.664 -14.396,13.688 -14.396,23.01 0,3.422 0.472,5.782 2.006,9.558 l 8.85,-5.31 c -1.416,-4.13 -1.77,-6.018 -1.77,-8.85 0,-6.254 2.714,-12.272 6.962,-15.694 4.012,-3.068 8.142,-4.484 15.93,-5.31 -4.012,18.29 -10.266,43.424 -14.632,58.528 z m 40.592,-59.472 c 1.77,-0.118 3.658,-0.236 4.602,-0.236 7.434,0 11.446,3.658 11.446,10.502 0,12.508 -8.378,21.712 -19.706,21.712 -1.416,0 -2.242,-0.118 -4.13,-0.472 z m 23.04409,65.608 9.086,-3.422 8.85,-33.63 c 4.012,-3.068 6.726,-4.13 9.912,-4.13 2.596,0 4.13,0.944 6.254,3.658 l 3.54,-11.21 c -2.124,-0.708 -3.186,-0.944 -4.366,-0.944 -2.242,0 -4.602,1.062 -7.788,3.304 -1.534,1.18 -3.068,2.36 -4.72,3.422 -0.708,0.59 -1.534,1.18 -2.242,1.652 l 1.416,-7.08 c 0,-0.708 -0.708,-1.298 -1.534,-1.298 -1.534,0 -11.918,5.074 -19.116,9.322 l -0.354,3.186 c 6.844,-3.304 6.962,-3.422 8.496,-3.422 1.534,0 2.242,0.826 2.242,2.478 0,1.652 -1.18,7.08 -2.596,12.272 z m 79.21197,-16.638 c -8.614,5.9 -10.62,7.08 -11.8,7.08 -0.826,0 -1.416,-0.944 -1.416,-2.36 0,-3.186 2.714,-15.576 7.08,-31.742 1.298,-1.888 1.534,-2.124 3.422,-4.248 -5.664,-1.298 -9.676,-1.77 -14.868,-1.77 -4.838,0 -7.198,0.472 -10.148,2.36 -4.248,2.478 -9.204,6.136 -10.738,7.788 -4.484,4.956 -9.322,20.886 -9.322,30.444 0,5.664 1.888,9.44 4.838,9.44 2.596,0 6.49,-2.36 21.24,-12.98 -1.298,6.018 -1.77,8.968 -1.77,10.502 0,1.652 0.708,2.478 1.888,2.478 1.534,0 2.478,-0.472 10.856,-6.018 4.012,-2.714 6.254,-4.248 10.62,-7.434 z m -20.768,-0.826 c -4.13,3.068 -6.254,4.602 -6.372,4.72 -3.894,2.478 -6.962,4.012 -8.496,4.012 -2.006,0 -3.068,-2.124 -3.068,-5.9 0,-6.018 1.77,-13.806 4.838,-20.65 2.832,-6.49 5.428,-8.968 9.44,-8.968 2.124,0 6.136,0.59 10.03,1.534 -2.36,8.496 -3.186,11.682 -3.304,12.272 -0.708,2.95 -1.298,5.9 -2.006,8.968 -0.118,0.59 -0.472,2.006 -1.062,4.012 z m 21.628,17.464 8.378,-3.186 7.552,-28.674 c 7.67,-5.31 12.744,-8.142 14.278,-8.142 0.944,0 1.534,0.944 1.534,2.596 0,3.54 -4.484,21.358 -9.44,37.406 l 8.968,-3.186 7.316,-29.5 c 6.726,-4.366 13.098,-7.906 14.514,-7.906 1.062,0 1.534,0.826 1.534,2.242 0,2.596 -1.062,7.906 -4.248,20.06 -1.77,7.316 -2.36,10.266 -2.36,12.98 0,2.478 0.59,3.776 2.832,5.31 6.844,-3.422 13.452,-7.67 19.942,-12.862 l 0.118,-2.714 c -10.03,6.136 -10.03,6.136 -11.682,6.136 -1.298,0 -2.124,-1.18 -2.124,-3.068 0,-2.714 1.416,-8.968 3.894,-17.7 3.776,-13.098 4.484,-15.812 4.484,-17.7 0,-1.18 -0.59,-1.77 -1.888,-1.77 -2.124,0 -9.44,3.776 -23.836,12.272 0.472,-2.124 0.472,-2.124 1.534,-6.726 0.472,-1.77 0.826,-3.776 0.826,-4.248 0,-0.826 -0.59,-1.298 -1.534,-1.298 -2.006,0 -6.49,2.478 -23.482,13.216 1.888,-8.024 2.478,-10.738 2.478,-11.564 0,-1.062 -0.708,-1.652 -1.77,-1.652 -1.18,0 -2.478,0.708 -8.378,4.012 -7.788,4.484 -7.788,4.484 -9.912,5.9 l -0.826,3.304 c 6.254,-3.186 7.316,-3.54 8.732,-3.54 0.944,0 1.652,0.944 1.652,2.242 0,1.77 -0.354,3.304 -5.074,22.066 -1.062,3.776 -2.006,7.67 -2.95,11.564 z m 118.86012,-16.638 c -8.614,5.9 -10.62,7.08 -11.8,7.08 -0.826,0 -1.416,-0.944 -1.416,-2.36 0,-3.186 2.714,-15.576 7.08,-31.742 1.298,-1.888 1.534,-2.124 3.422,-4.248 -5.664,-1.298 -9.676,-1.77 -14.868,-1.77 -4.838,0 -7.198,0.472 -10.148,2.36 -4.248,2.478 -9.204,6.136 -10.738,7.788 -4.484,4.956 -9.322,20.886 -9.322,30.444 0,5.664 1.888,9.44 4.838,9.44 2.596,0 6.49,-2.36 21.24,-12.98 -1.298,6.018 -1.77,8.968 -1.77,10.502 0,1.652 0.708,2.478 1.888,2.478 1.534,0 2.478,-0.472 10.856,-6.018 4.012,-2.714 6.254,-4.248 10.62,-7.434 z m -20.768,-0.826 c -4.13,3.068 -6.254,4.602 -6.372,4.72 -3.894,2.478 -6.962,4.012 -8.496,4.012 -2.006,0 -3.068,-2.124 -3.068,-5.9 0,-6.018 1.77,-13.806 4.838,-20.65 2.832,-6.49 5.428,-8.968 9.44,-8.968 2.124,0 6.136,0.59 10.03,1.534 -2.36,8.496 -3.186,11.682 -3.304,12.272 -0.708,2.95 -1.298,5.9 -2.006,8.968 -0.118,0.59 -0.472,2.006 -1.062,4.012 z m 30.124,14.042 6.962,-27.73 2.95,-1.888 c 10.974,-6.844 12.272,-7.552 13.924,-7.552 0.708,0 1.18,0.59 1.18,1.534 0,1.888 -0.826,5.31 -4.366,19.706 -2.596,10.384 -3.068,12.508 -3.068,14.75 0,1.652 0.472,3.068 1.77,5.31 5.31,-2.36 13.57,-7.552 21.83,-13.688 l 0.826,-3.304 c -11.446,6.608 -12.272,6.962 -13.452,6.962 -1.18,0 -1.888,-1.18 -1.888,-3.186 0,-3.186 0.472,-5.192 5.664,-23.954 2.95,-10.502 2.95,-10.502 2.95,-11.21 0,-1.298 -0.826,-2.006 -2.242,-2.006 -2.596,0 -2.95,0.236 -15.694,8.024 -4.72,2.95 -7.788,4.838 -9.204,5.782 1.18,-4.13 2.832,-11.328 2.832,-12.272 0,-0.944 -0.59,-1.534 -1.534,-1.534 -1.298,0 -9.322,4.13 -18.526,9.558 l -0.708,3.068 c 7.552,-3.422 8.024,-3.54 9.086,-3.54 0.826,0 1.416,0.708 1.416,1.652 0,2.596 -2.124,12.036 -5.192,23.01 l -2.714,9.558 c -0.236,0.826 -0.826,3.068 -1.652,6.372 z m 65.64191,-70.446 c -3.304,2.596 -6.018,4.72 -8.142,6.136 0.826,2.478 1.888,4.484 4.484,8.26 3.304,-2.95 3.658,-3.304 7.67,-6.372 -0.354,-0.708 -0.59,-1.18 -1.534,-2.714 -0.708,-1.416 -0.826,-1.416 -1.77,-3.776 z m 4.484,59 -2.006,1.062 c -8.142,4.484 -9.558,5.074 -10.974,5.074 -1.298,0 -2.124,-1.298 -2.124,-3.304 0,-2.006 0,-2.006 3.894,-17.582 4.366,-17.936 4.366,-17.936 4.366,-18.88 0,-0.708 -0.59,-1.18 -1.416,-1.18 -2.006,0 -8.968,3.894 -18.644,10.384 l -0.236,3.304 c 7.198,-3.894 7.552,-4.012 8.614,-4.012 0.944,0 1.416,0.708 1.416,2.006 0,1.652 -0.354,3.304 -2.124,10.03 -5.546,20.532 -5.546,20.532 -5.546,23.6 0,2.832 1.062,4.72 2.832,4.72 2.006,0 5.192,-1.534 11.446,-5.546 2.242,-1.416 4.484,-2.832 6.726,-4.366 1.062,-0.59 1.888,-1.18 3.304,-2.006 z m 0.38794,14.986 c 1.298,-0.472 2.478,-0.944 2.832,-1.062 0.708,-0.236 1.888,-0.59 3.186,-1.062 0.354,-0.118 1.416,-0.472 2.596,-0.826 l 4.602,-21.004 2.714,-1.652 c 2.36,5.428 2.832,6.49 6.608,15.34 5.074,12.036 8.142,16.874 12.98,20.65 5.074,3.894 12.39,6.372 18.644,6.372 5.428,0 9.204,-1.18 12.862,-4.13 l -2.36,-8.496 c -3.776,6.372 -7.198,8.85 -12.154,8.85 -3.894,0 -7.08,-1.888 -10.738,-6.254 -3.186,-3.776 -3.186,-3.776 -15.812,-30.562 l -3.422,-7.316 7.906,-7.198 c 4.72,-4.13 6.018,-4.956 8.26,-4.956 2.006,0 3.422,0.944 5.31,3.422 l 6.018,-8.968 c -2.36,-1.77 -4.012,-2.36 -6.608,-2.36 -3.186,0 -5.192,1.062 -8.732,4.366 -3.658,3.54 -3.776,3.658 -5.074,4.838 l -15.222,13.57 4.484,-18.054 c 3.776,-15.576 5.074,-19.352 7.08,-22.656 2.124,-3.422 5.192,-5.074 9.204,-5.074 1.062,0 2.006,0.118 4.13,0.472 l 4.72,-6.844 c -1.534,-0.236 -2.242,-0.354 -3.422,-0.354 -4.248,0 -6.962,0.944 -10.738,3.658 -7.552,5.31 -12.862,10.502 -14.396,13.924 -1.18,2.596 -3.422,10.384 -4.956,17.228 z"
       id="text3"
       style="font-style:italic;font-size:118px;font-family:Z003, 'URW Chancery L', 'Apple Chancery', cursive;letter-spacing:-1.5;fill:#f5efe4"
       aria-label="Abhijit Pramanik" />
    <path
       d="M58 168 C170 160, 304 173, 440 164 S675 155, 850 165"
       stroke="url(#sigGold)"
       stroke-width="3.2"
       fill="none"
       stroke-linecap="round"
       opacity="0.95"
       id="path3" />
    <path
       d="M76 184 C190 183, 280 183, 400 178"
       stroke="url(#sigGold)"
       stroke-width="1.6"
       fill="none"
       stroke-linecap="round"
       opacity="0.75"
       id="path4" />
  </g>
</svg>
