<svg xmlns="http://www.w3.org/2000/svg" width="170pt" height="80pt" style="isolation:isolate" viewBox="0 0 170 80"><path fill="#813588" d="M41.105 17a4.31 4.31 0 0 1 4.293 4.326v35.968a4.31 4.31 0 0 1-4.293 4.326H5.409a4.31 4.31 0 0 1-4.292-4.326V21.326A4.31 4.31 0 0 1 5.409 17z"/><path fill="none" d="M5.409 17a4.31 4.31 0 0 0-4.292 4.326v14.631a2.57 2.57 0 0 0 2.563 2.584h39.148a2.575 2.575 0 0 0 2.563-2.584V21.326A4.31 4.31 0 0 0 41.105 17z"/><clipPath id="a"><path fill="#fff" d="M5.409 17a4.31 4.31 0 0 0-4.292 4.326v14.631a2.57 2.57 0 0 0 2.563 2.584h39.148a2.575 2.575 0 0 0 2.563-2.584V21.326A4.31 4.31 0 0 0 41.105 17z"/></clipPath><g clip-path="url(#a)"><path fill="none" d="M5.409 17a4.31 4.31 0 0 0-4.292 4.326v14.631a2.57 2.57 0 0 0 2.563 2.584h39.148a2.575 2.575 0 0 0 2.563-2.584V21.326A4.31 4.31 0 0 0 41.105 17z"/></g><path fill="none" d="M3.68 40.079a2.573 2.573 0 0 0-2.563 2.583v14.632a4.31 4.31 0 0 0 4.292 4.326h35.696a4.31 4.31 0 0 0 4.293-4.326V42.662a2.576 2.576 0 0 0-2.567-2.583z"/><clipPath id="b"><path fill="#fff" d="M3.68 40.079a2.573 2.573 0 0 0-2.563 2.583v14.632a4.31 4.31 0 0 0 4.292 4.326h35.696a4.31 4.31 0 0 0 4.293-4.326V42.662a2.576 2.576 0 0 0-2.567-2.583z"/></clipPath><g clip-path="url(#b)"><path fill="none" d="M3.68 40.079a2.573 2.573 0 0 0-2.563 2.583v14.632a4.31 4.31 0 0 0 4.292 4.326h35.696a4.31 4.31 0 0 0 4.293-4.326V42.662a2.576 2.576 0 0 0-2.567-2.583z"/></g><path fill="#813588" d="M41.186 18.429a2.8 2.8 0 0 1 2.791 2.813v36.137a2.803 2.803 0 0 1-2.791 2.813H5.326a2.803 2.803 0 0 1-2.791-2.813V21.242a2.8 2.8 0 0 1 2.791-2.813z"/><path fill="#4b205a" d="m29.796 50.814-8.603 2.503a1.376 1.376 0 0 1-1.702-.947l-6.508-22.724c-.213-.733.207-1.5.939-1.716l8.902-2.589a5.55 5.55 0 0 1 5.712 1.611 6.215 6.215 0 0 1-.395 8.963 7.613 7.613 0 0 1 1.653 14.899"/><path fill="#fefefe" d="M20.614 55.113a2.765 2.765 0 0 1-2.639-2.002l-6.667-23.279a2.77 2.77 0 0 1 1.878-3.428l9.145-2.66a6.3 6.3 0 0 1 1.759-.237 7.93 7.93 0 0 1 6.025 2.723 8.3 8.3 0 0 1 1.772 4.402 7.8 7.8 0 0 1-.84 4.232 9.3 9.3 0 0 1 4.474 3.737 9.82 9.82 0 0 1 1.344 6.28 8.75 8.75 0 0 1-2.122 4.591 8.9 8.9 0 0 1-4.169 2.856l-9.196 2.676a2.7 2.7 0 0 1-.764.109m3.803-30.001c-.534 0-1.066.076-1.579.225l-8.917 2.593a1.39 1.39 0 0 0-.939 1.715l6.509 22.725a1.367 1.367 0 0 0 1.705.947l8.604-2.503a7.613 7.613 0 0 0-1.654-14.899 6.16 6.16 0 0 0 2.101-4.227 6.5 6.5 0 0 0-1.714-4.747 5.5 5.5 0 0 0-4.116-1.829"/><path fill="#813588" d="M32.477 44.758a6.986 6.986 0 0 0-6.884-7.01 6.01 6.01 0 0 0 .452-8.59 5.4 5.4 0 0 0-5.61-1.643l-7.443 2.165 6.499 22.691a1.37 1.37 0 0 0 1.701.947l6.109-1.777.084-.028a7.004 7.004 0 0 0 5.087-6.754M155.433 46.03a11.8 11.8 0 0 1-5.248-1.156 10.3 10.3 0 0 1-3.5-2.781 3.78 3.78 0 0 1-.968-2.312 2.54 2.54 0 0 1 .789-1.974 2.48 2.48 0 0 1 1.649-.588c.997 0 1.848.866 2.402 1.518 1.624 1.596 3.071 2.275 4.84 2.275 2.392 0 3.764-1.067 3.764-2.926a3.3 3.3 0 0 0-1.577-2.761 18.6 18.6 0 0 0-3.641-1.835c-3.469-1.463-7.402-3.122-7.402-7.94a8.2 8.2 0 0 1 .692-3.444 6.54 6.54 0 0 1 1.827-2.371 9.08 9.08 0 0 1 5.585-1.848c1.957-.046 3.89.441 5.592 1.409 1.604.935 3.477 2.697 3.477 4.589a2.03 2.03 0 0 1-.735 1.571 2.63 2.63 0 0 1-1.703.597 3.32 3.32 0 0 1-2.418-1.391 7 7 0 0 0-.772-.74 5.18 5.18 0 0 0-3.403-1.049c-1.891 0-2.976.948-2.976 2.604 0 1.707 2.061 2.596 4.447 3.627 3.641 1.573 8.173 3.528 8.173 9.271a7.02 7.02 0 0 1-2.63 5.673 10 10 0 0 1-6.264 1.982m-93.953-.178h-.246l-7.133-.074a2.57 2.57 0 0 1-1.868-.713 2.55 2.55 0 0 1-.714-1.852V20.452a2.55 2.55 0 0 1 .713-1.865 2.59 2.59 0 0 1 1.869-.7h7.17a14 14 0 0 1 4.135.567c1.08.32 2.083.859 2.946 1.583a7.02 7.02 0 0 1 2.352 5.509 6.59 6.59 0 0 1-3.263 5.636.07.07 0 0 0-.033.059.06.06 0 0 0 .033.05 7.66 7.66 0 0 1 3.419 2.66 7.1 7.1 0 0 1 1.242 4.098 6.89 6.89 0 0 1-2.316 5.512c-1.781 1.522-4.574 2.293-8.301 2.293zm-4.836-23.197v18.282h5.27c3.213 0 4.911-1.1 4.911-3.18 0-2.288-1.059-3.258-3.908-3.577-1.782-.229-2.724-1.191-2.724-2.782 0-1.456.851-2.268 2.76-2.637 1.737-.311 2.617-1.272 2.617-2.856a2.95 2.95 0 0 0-3.226-3.252zm27.939 23.123a2.38 2.38 0 0 1-1.784-.795 3.22 3.22 0 0 1-.762-2.203v-8.02l-7.421-11.995a3.75 3.75 0 0 1-.681-2.132 2.22 2.22 0 0 1 .756-1.676 2.78 2.78 0 0 1 1.863-.673 2.58 2.58 0 0 1 2.294 1.555l5.771 9.681 5.771-9.682a2.58 2.58 0 0 1 2.294-1.554 2.78 2.78 0 0 1 1.86.673c.482.423.757 1.033.756 1.675a3.76 3.76 0 0 1-.681 2.132L87.2 34.76v8.02c0 1.822-1.028 2.998-2.617 2.998m16.634-.109a8.09 8.09 0 0 1-6.363-2.663 7.24 7.24 0 0 1-1.848-4.53 2.516 2.516 0 0 1 2.576-2.646c.073 0 .147 0 .219.008 1.397.114 1.777 1.123 2.185 2.19.485 1.286.989 2.616 3.276 2.616h.1a3.27 3.27 0 0 0 2.782-1.219 6.1 6.1 0 0 0 .874-3.658V21.283c0-1.878.965-2.999 2.582-2.999 1.568 0 2.581 1.177 2.581 2.999v14.379c-.001 6.547-3.1 10.007-8.963 10.007zm24.163-.036c-3.18 0-5.653-.965-7.349-2.867-1.736-1.949-2.617-4.837-2.617-8.585V21.283a3.28 3.28 0 0 1 .713-2.204 2.4 2.4 0 0 1 1.869-.795c1.571 0 2.579 1.177 2.579 2.999v12.501c0 2.502.399 4.237 1.219 5.302a4.15 4.15 0 0 0 3.585 1.454 4.15 4.15 0 0 0 3.586-1.454c.82-1.065 1.219-2.799 1.219-5.302V21.283c0-1.822 1.013-2.999 2.581-2.999a2.41 2.41 0 0 1 1.869.795c.498.624.751 1.407.712 2.204v12.902c0 3.748-.88 6.637-2.617 8.585-1.695 1.898-4.167 2.863-7.348 2.863zm15.565-17.775c-1.429 0-2.185-1.387-2.185-4.01v-2.059c0-2.371.855-3.507 2.689-3.577a2.57 2.57 0 0 1 2.025.756c.454.587.677 1.319.628 2.059a17.9 17.9 0 0 1-1.363 5.564 1.99 1.99 0 0 1-1.794 1.267"/><path fill="#a054a0" d="M117.996 18.769c1.505 0 2.581 1.12 2.581 2.999v-.485c0-1.879-1.076-2.999-2.581-2.999-1.542 0-2.582 1.12-2.582 2.999v.485c0-1.878 1.04-2.999 2.582-2.999M120.577 34.268c0 5.13 1.65 6.756 4.804 6.756s4.805-1.626 4.805-6.756v-.485c0 5.131-1.65 6.756-4.804 6.756s-4.805-1.625-4.805-6.756zM151.716 25.687a4 4 0 0 0-.012.272c0 4.222 12.378 3.34 12.614 12.628 0-.072.006-.143.006-.216 0-9.408-12.193-8.664-12.608-12.684M76.552 18.769a2.57 2.57 0 0 1 2.294 1.554l5.772 9.682 5.772-9.682a2.57 2.57 0 0 1 2.295-1.554 2.475 2.475 0 0 1 2.604 2.146q.01-.138.011-.282a2.454 2.454 0 0 0-2.615-2.349 2.58 2.58 0 0 0-2.295 1.554l-5.772 9.682-5.772-9.682a2.57 2.57 0 0 0-2.294-1.554 2.453 2.453 0 0 0-2.617 2.353q0 .145.011.282a2.475 2.475 0 0 1 2.606-2.15M148.153 37.7a3.53 3.53 0 0 1 2.404 1.518 6.63 6.63 0 0 0 4.84 2.276c2.259 0 3.762-.976 3.762-2.926 0-.093 0-.177-.009-.261-.112 1.802-1.583 2.706-3.753 2.706a6.63 6.63 0 0 1-4.84-2.281 3.53 3.53 0 0 0-2.404-1.517 2.364 2.364 0 0 0-2.436 2.565q.002.104.012.212a2.335 2.335 0 0 1 2.424-2.292M154.645 18.372a10.8 10.8 0 0 1 5.591 1.41c1.545.899 3.315 2.56 3.462 4.35q.015-.123.015-.247c0-1.878-1.864-3.649-3.477-4.588a10.8 10.8 0 0 0-5.591-1.41c-4.087.072-8.103 2.312-8.103 7.659q-.002.127.006.246c.119-5.173 4.072-7.349 8.097-7.42M93.007 38.479c0 .092 0 .187.01.284a2.524 2.524 0 0 1 2.787-2.435c3.084.253 1.219 4.877 5.556 4.804 2.546-.036 3.661-1.589 3.661-4.877v-.485c0 3.288-1.112 4.842-3.657 4.878-4.341.072-2.476-4.553-5.56-4.806a2.53 2.53 0 0 0-2.797 2.637M132.767 18.284c-1.506 0-2.581 1.12-2.581 2.999v.485c0-1.878 1.075-2.999 2.581-2.999 1.542 0 2.582 1.12 2.582 2.999v-.485c-.001-1.879-1.04-2.999-2.582-2.999M141.446 18.212c-1.899.072-2.688 1.301-2.688 3.577v.485c0-2.276.789-3.504 2.688-3.577a2.387 2.387 0 0 1 2.654 2.334c0-1.735-.789-2.819-2.654-2.819M107.6 18.284c-1.614 0-2.582 1.12-2.582 2.999v.485c0-1.878.968-2.999 2.582-2.999 1.505 0 2.581 1.12 2.581 2.999v-.485c-.001-1.879-1.076-2.999-2.581-2.999M54.101 18.372h7.17c6.176 0 9.293 3.046 9.423 7.376 0-.067.006-.135.006-.203 0-4.479-3.12-7.658-9.429-7.658h-7.17a2.43 2.43 0 0 0-2.582 2.565v.486a2.428 2.428 0 0 1 2.582-2.566M62.956 28.761c-1.686.325-2.761 1.012-2.761 2.637q0 .126.01.252c.101-1.458 1.15-2.095 2.751-2.401 1.613-.292 2.616-1.159 2.616-2.856q.002-.126-.008-.252c-.09 1.543-1.071 2.345-2.604 2.62M61.916 41.421c3.227 0 4.912-1.119 4.912-3.179q-.001-.16-.01-.311c-.09 1.947-1.771 3.006-4.902 3.006h-5.269v.484zM67.437 31.29a.06.06 0 0 1-.032-.05.07.07 0 0 1 .032-.058l.006-.005-.289.225a.15.15 0 0 0-.058.139c.006.054.04.1.089.122l.253.112a7.105 7.105 0 0 1 4.654 6.583c0-.105.005-.208.005-.313a7.7 7.7 0 0 0-.362-2.319 7.23 7.23 0 0 0-4.298-4.436"/><path fill="#6c6e70" d="M51.339 51.283a.7.7 0 0 1 .22-.517.73.73 0 0 1 .529-.215h6.164a.71.71 0 0 1 .525.225.74.74 0 0 1 .224.543.7.7 0 0 1-.225.528.73.73 0 0 1-.527.218h-2.226v7.342a.81.81 0 0 1-.252.602.84.84 0 0 1-.613.252.8.8 0 0 1-.597-.252.83.83 0 0 1-.242-.602v-7.344h-2.228a.72.72 0 0 1-.535-.225.77.77 0 0 1-.217-.555M60.267 59.499v-8.285a.7.7 0 0 1 .224-.529.78.78 0 0 1 .566-.218.7.7 0 0 1 .521.221.72.72 0 0 1 .22.526v2.945a3.3 3.3 0 0 1 1.038-.797 3.1 3.1 0 0 1 1.416-.331 2.24 2.24 0 0 1 1.667.571c.402.449.605 1.041.565 1.641v4.256a.766.766 0 0 1-1.531 0v-3.696a1.38 1.38 0 0 0-.36-1.078 1.54 1.54 0 0 0-1.049-.32c-.35 0-.694.093-.997.268a2.3 2.3 0 0 0-.752.655v4.171a.73.73 0 0 1-.223.535.74.74 0 0 1-.545.226.73.73 0 0 1-.542-.226.74.74 0 0 1-.218-.535M71.608 60.351a3.55 3.55 0 0 1-2.597-1.02 3.59 3.59 0 0 1-1.025-2.651 3.86 3.86 0 0 1 .444-1.835 3.4 3.4 0 0 1 1.255-1.325 3.45 3.45 0 0 1 1.811-.489c.739-.018 1.46.22 2.045.672a3.43 3.43 0 0 1 1.171 1.808q.148.453.175.93a.756.756 0 0 1-.749.746h-4.551c.045.496.283.954.661 1.277.423.353.962.536 1.513.513a3.5 3.5 0 0 0 1.551-.351.8.8 0 0 1 .315-.065.65.65 0 0 1 .444.183.6.6 0 0 1 .199.451.66.66 0 0 1-.287.514 2.1 2.1 0 0 1-.716.367 6 6 0 0 1-.866.205 5 5 0 0 1-.793.07m-.112-5.947a1.79 1.79 0 0 0-1.363.526 1.98 1.98 0 0 0-.56 1.193h3.838a1.85 1.85 0 0 0-.462-1.137 1.56 1.56 0 0 0-.598-.42 2.2 2.2 0 0 0-.855-.162M80.103 59.14v-7.842a.8.8 0 0 1 .252-.589.83.83 0 0 1 .608-.242.81.81 0 0 1 .595.252c.161.15.252.361.252.581v7.361h3.537a.72.72 0 0 1 .52.215.7.7 0 0 1 .221.517.77.77 0 0 1-.221.557.7.7 0 0 1-.52.226h-4.209a1 1 0 0 1-.73-.307 1 1 0 0 1-.305-.729M90.45 60.351a3.55 3.55 0 0 1-2.597-1.02 3.6 3.6 0 0 1-1.025-2.651 3.9 3.9 0 0 1 .444-1.835 3.4 3.4 0 0 1 1.255-1.325 3.45 3.45 0 0 1 1.811-.489 3.2 3.2 0 0 1 2.045.672 3.4 3.4 0 0 1 1.17 1.808c.1.3.159.613.176.93a.756.756 0 0 1-.749.746h-4.551c.045.496.283.954.661 1.277a2.22 2.22 0 0 0 1.512.513 3.5 3.5 0 0 0 1.553-.351.8.8 0 0 1 .314-.065.64.64 0 0 1 .443.183c.13.114.203.279.2.451a.66.66 0 0 1-.286.514 2.1 2.1 0 0 1-.717.367 6 6 0 0 1-.867.205 5 5 0 0 1-.792.07m-.112-5.947a1.8 1.8 0 0 0-1.364.526 2 2 0 0 0-.559 1.193h3.839a1.9 1.9 0 0 0-.126-.588 2 2 0 0 0-.336-.549 1.6 1.6 0 0 0-.598-.42 2.2 2.2 0 0 0-.856-.162M97.23 60.351c-.293 0-.583-.05-.86-.148a2.7 2.7 0 0 1-.78-.426 2 2 0 0 1-.573-.73 2.3 2.3 0 0 1-.218-1.007 2.3 2.3 0 0 1 .218-1.025c.132-.279.33-.522.576-.708a2.7 2.7 0 0 1 .776-.397c.278-.089.569-.134.861-.134a3.4 3.4 0 0 1 1.273.229c.364.139.687.368.939.666v-1.03a1.08 1.08 0 0 0-.442-.904 1.9 1.9 0 0 0-1.159-.336 3 3 0 0 0-1.648.458.6.6 0 0 1-.737-.078.56.56 0 0 1-.186-.437.5.5 0 0 1 .117-.326 2.37 2.37 0 0 1 1.167-.735 5 5 0 0 1 1.534-.252 4.2 4.2 0 0 1 1.101.137c.325.087.633.229.91.42.28.201.501.474.64.789.162.371.241.772.233 1.176v3.946a.77.77 0 0 1-.756.761h-.084a.77.77 0 0 1-.452-.177.62.62 0 0 1-.237-.528v-.127a2.5 2.5 0 0 1-.956.684 3.3 3.3 0 0 1-1.257.239m.589-3.509a1.6 1.6 0 0 0-1.036.331 1.1 1.1 0 0 0-.41.898 1.08 1.08 0 0 0 .411.877c.294.23.659.349 1.032.336.323.003.643-.058.942-.18.273-.109.509-.292.684-.529v-1.041a1.57 1.57 0 0 0-.684-.515c-.3-.119-.62-.18-.942-.177zM102.909 59.499v-5.63a.71.71 0 0 1 .224-.528.78.78 0 0 1 .566-.219.7.7 0 0 1 .521.23.75.75 0 0 1 .22.542v.372a2.19 2.19 0 0 1 1.651-1.144.64.64 0 0 1 .485.193c.126.133.192.31.186.492a.8.8 0 0 1-.207.568.87.87 0 0 1-.537.259 2.05 2.05 0 0 0-1.578.848v4.025a.73.73 0 0 1-.223.531.73.73 0 0 1-.531.225h-.029a.7.7 0 0 1-.527-.225.74.74 0 0 1-.221-.539M107.888 59.499v-5.628a.7.7 0 0 1 .223-.53.78.78 0 0 1 .567-.219.7.7 0 0 1 .52.223.72.72 0 0 1 .221.526v.289a3.2 3.2 0 0 1 1.031-.802 3.05 3.05 0 0 1 1.409-.327 2.22 2.22 0 0 1 1.668.581c.4.457.602 1.053.562 1.659v4.228a.73.73 0 0 1-.226.535.75.75 0 0 1-.549.226.73.73 0 0 1-.535-.222.74.74 0 0 1-.221-.539v-3.664a1.44 1.44 0 0 0-.36-1.099 1.47 1.47 0 0 0-1.034-.332c-.354 0-.701.092-1.008.268a2.2 2.2 0 0 0-.737.655v4.172a.73.73 0 0 1-.224.535.74.74 0 0 1-.545.221.73.73 0 0 1-.542-.225.74.74 0 0 1-.22-.531M116.781 60.26a.73.73 0 0 1-.542-.225.75.75 0 0 1-.22-.536v-5.628a.72.72 0 0 1 .223-.529.78.78 0 0 1 .566-.218.7.7 0 0 1 .521.223.72.72 0 0 1 .221.525V59.5a.74.74 0 0 1-.224.536.74.74 0 0 1-.545.224m0-7.905a.92.92 0 0 1-.672-.274.93.93 0 0 1-.272-.678.9.9 0 0 1 .276-.662.92.92 0 0 1 .668-.274.91.91 0 0 1 .667.274c.18.173.28.413.276.662a.93.93 0 0 1-.276.678.92.92 0 0 1-.667.273zM119.479 59.499v-5.628a.71.71 0 0 1 .224-.53.78.78 0 0 1 .566-.219.7.7 0 0 1 .521.223.72.72 0 0 1 .22.526v.289a3.2 3.2 0 0 1 1.032-.802c.436-.22.919-.333 1.409-.327a2.22 2.22 0 0 1 1.667.581c.4.457.603 1.053.563 1.659v4.228a.73.73 0 0 1-.227.535.75.75 0 0 1-.548.226.73.73 0 0 1-.536-.222.74.74 0 0 1-.221-.539v-3.664a1.44 1.44 0 0 0-.359-1.099 1.47 1.47 0 0 0-1.034-.332c-.354 0-.702.092-1.008.268a2.2 2.2 0 0 0-.738.655v4.172a.74.74 0 0 1-.223.535.74.74 0 0 1-.546.221.72.72 0 0 1-.541-.225.74.74 0 0 1-.221-.531"/><path fill="none" d="M127.184 53.031h6.795V63h-6.795z"/><clipPath id="c"><path fill="#fff" d="M127.184 53.031h6.795V63h-6.795z"/></clipPath><g clip-path="url(#c)"><path fill="#6c6e70" d="M130.414 63a5.7 5.7 0 0 1-1.531-.202 2.2 2.2 0 0 1-1.118-.646.68.68 0 0 1-.132-.395.62.62 0 0 1 .195-.464.66.66 0 0 1 .47-.187.7.7 0 0 1 .343.084 3.4 3.4 0 0 0 1.778.437q.372.003.732-.092.345-.094.644-.292c.209-.142.374-.338.478-.568.123-.273.183-.571.176-.871v-.784c-.262.35-.597.64-.981.849a2.55 2.55 0 0 1-1.222.302 2.85 2.85 0 0 1-2.213-.942 3.8 3.8 0 0 1-.849-2.625 3.82 3.82 0 0 1 .849-2.621 2.84 2.84 0 0 1 2.213-.952c.422-.001.838.099 1.213.292.387.202.725.487.989.835v-.275a.74.74 0 0 1 .223-.538.77.77 0 0 1 .562-.223c.197 0 .387.081.522.225a.75.75 0 0 1 .223.536v5.918c.008.443-.062.883-.208 1.301-.118.34-.305.653-.548.918-.236.24-.513.436-.819.578a4 4 0 0 1-.961.314q-.51.09-1.028.088m.28-8.596a1.79 1.79 0 0 0-1.41.604 2.34 2.34 0 0 0-.527 1.596 2.34 2.34 0 0 0 .527 1.593c.355.403.872.625 1.409.604.353-.003.7-.095 1.008-.267a1.95 1.95 0 0 0 .744-.667v-2.542a1.95 1.95 0 0 0-.744-.656 2.1 2.1 0 0 0-1.007-.265"/></g><path fill="#6c6e70" d="M146.964 60.26a.86.86 0 0 1-.5-.156.9.9 0 0 1-.336-.411l-.504-1.35h-4.342l-.517 1.35a.82.82 0 0 1-.325.411.9.9 0 0 1-.504.156.86.86 0 0 1-.657-.276.93.93 0 0 1-.265-.654.6.6 0 0 1 .077-.316l2.978-7.639c.102-.27.286-.501.525-.662.236-.162.517-.248.804-.246h.069c.279 0 .552.078.789.225.259.161.46.4.573.683l2.993 7.639q.048.154.056.316a.94.94 0 0 1-.259.643.85.85 0 0 1-.655.287m-3.51-7.975-1.706 4.544h3.399zM150.013 62.916a.74.74 0 0 1-.539-.224.72.72 0 0 1-.223-.523v-8.298a.7.7 0 0 1 .223-.53.78.78 0 0 1 .567-.219.71.71 0 0 1 .521.223.72.72 0 0 1 .22.526v.274c.257-.343.589-.624.971-.819a2.7 2.7 0 0 1 1.238-.295 2.78 2.78 0 0 1 2.207.979c.594.759.893 1.708.84 2.67a4 4 0 0 1-.846 2.688 2.77 2.77 0 0 1-2.201.983 2.7 2.7 0 0 1-1.22-.289 2.9 2.9 0 0 1-.99-.84v2.945a.71.71 0 0 1-.227.526.76.76 0 0 1-.541.223m2.52-8.511a2.1 2.1 0 0 0-1 .268 2 2 0 0 0-.748.655v2.726c.192.276.449.499.748.652.305.174.649.268 1 .272a1.74 1.74 0 0 0 1.404-.641 2.52 2.52 0 0 0 .532-1.656 2.48 2.48 0 0 0-.532-1.638 1.74 1.74 0 0 0-1.41-.639zM158.297 62.916a.74.74 0 0 1-.538-.224.72.72 0 0 1-.223-.523v-8.298a.72.72 0 0 1 .223-.53.78.78 0 0 1 .567-.219.71.71 0 0 1 .521.223.72.72 0 0 1 .22.526v.274c.257-.343.589-.624.971-.819a2.7 2.7 0 0 1 1.238-.295 2.78 2.78 0 0 1 2.207.979c.594.759.893 1.708.84 2.67a4 4 0 0 1-.846 2.688 2.77 2.77 0 0 1-2.201.983 2.7 2.7 0 0 1-1.22-.289 2.9 2.9 0 0 1-.99-.84v2.945a.71.71 0 0 1-.227.526.76.76 0 0 1-.542.223m2.521-8.511a2.1 2.1 0 0 0-1 .268 2 2 0 0 0-.748.655v2.726c.192.276.449.499.748.652.305.174.649.268 1 .272a1.74 1.74 0 0 0 1.404-.641 2.52 2.52 0 0 0 .532-1.656 2.48 2.48 0 0 0-.532-1.638 1.74 1.74 0 0 0-1.41-.639z"/><path fill="none" d="M165.395 18.333h3.488v3.516h-3.488z"/><clipPath id="d"><path fill="#fff" d="M165.395 18.333h3.488v3.516h-3.488z"/></clipPath><g clip-path="url(#d)"><path fill="#813588" d="M167.139 21.849a1.69 1.69 0 0 1-1.234-.514 1.7 1.7 0 0 1-.51-1.244 1.7 1.7 0 0 1 .51-1.245 1.69 1.69 0 0 1 1.234-.513c.309-.002.613.078.881.233.264.153.482.373.632.638.154.271.234.577.231.888.008.466-.176.915-.509 1.243a1.68 1.68 0 0 1-1.235.514m0-3.269a1.44 1.44 0 0 0-1.055.44 1.47 1.47 0 0 0-.437 1.071c-.005.397.153.78.437 1.058a1.43 1.43 0 0 0 1.055.442c.4.006.784-.154 1.061-.441.286-.278.444-.661.438-1.059a1.47 1.47 0 0 0-.435-1.071 1.45 1.45 0 0 0-1.064-.44m-.394 2.526h-.273v-2.017h.816a.65.65 0 0 1 .45.168.57.57 0 0 1 .189.441.55.55 0 0 1-.185.446.55.55 0 0 1-.326.155l.538.805h-.336l-.518-.798h-.355zm0-1.78v.729h.542a.36.36 0 0 0 .252-.103.352.352 0 0 0 0-.517.35.35 0 0 0-.252-.107z"/></g></svg>