<svg xmlns="http://www.w3.org/2000/svg" viewBox="0 0 371.26 109"><defs><style>.cls-1{fill:#fff;}.cls-2{fill:red;}</style></defs><g id="Layer_2" data-name="Layer 2"><g id="Layer_2-2" data-name="Layer 2"><path class="cls-1" d="M16.84,85H35.62L56.83,54.49,69.61,85H92.39l-.57-1.5h-14l-36-83h-4L52.58,35.74s.5,1-.5,1a1,1,0,0,1-1-1L36.05.5H31.47L49.08,39.74Z"></path><path class="cls-1" d="M44.08.5l35,80.73h11.5l-18-41.49L101.07.25H82.57l-18,25.49L54.43.25H49.58l8.5,20.5s0,1.5-1.5.5l-8.5-21h-4Z"></path><polygon class="cls-1" points="85.07 66.24 103.28 66.24 128.56 31.24 143.06 31.24 152.06 19.25 89.83 19.25 81.32 30.99 110.82 30.99 85.07 66.24"></polygon><path class="cls-1" d="M139.31,40.49l-8,11,13.93,14.75h14.92L146.81,52h7a15,15,0,0,0,11.49-2.5s6.5-4.5,7-6.5c0,0,7-10,7-11s6.5-11.49-3.5-12.49l-21-.5-9,12h16s6.49-1,3,3.5a10.17,10.17,0,0,1-6.49,6Z"></path><polygon class="cls-1" points="187.3 30.49 223.29 30.99 231.79 19.5 195.44 19.5 187.3 30.49"></polygon><polygon class="cls-1" points="175.03 47.49 198.55 47.49 206.8 35.99 183.5 35.99 175.03 47.49"></polygon><polygon class="cls-1" points="169.8 54.49 161.81 65.99 198.16 65.99 206.44 54.49 169.8 54.49"></polygon><polygon class="cls-1" points="233.63 19.28 199.8 66.2 218.17 66.2 252.23 19.28 233.63 19.28"></polygon><polygon class="cls-1" points="254.82 19.28 220.99 66.2 239.15 66.2 273.41 19.28 254.82 19.28"></polygon><polygon class="cls-1" points="276.44 19.28 242.6 66.2 260.88 66.2 294.71 19.28 276.44 19.28"></polygon><polygon class="cls-1" points="297.52 19.28 289.38 30.89 325.19 30.89 333.52 19.28 297.52 19.28"></polygon><polygon class="cls-1" points="285.34 35.43 276.77 47.53 300.87 47.53 309.56 35.93 285.34 35.43"></polygon><polygon class="cls-1" points="271.72 54.6 263.58 66.2 299.74 66.2 308.06 54.6 271.72 54.6"></polygon><polygon class="cls-1" points="11.34 92.48 14.89 92.48 3.34 108.48 0 108.48 11.34 92.48"></polygon><polygon class="cls-1" points="16.66 92.48 5.25 108.48 13.02 108.48 24.83 92.48 16.66 92.48"></polygon><polygon class="cls-1" points="27.16 92.48 14.89 108.48 28.01 108.48 39.47 92.48 27.16 92.48"></polygon><polygon class="cls-1" points="41.88 92.48 30.15 108.48 60.47 108.48 72.09 92.48 41.88 92.48"></polygon><path class="cls-1" d="M75.61,92.48,63.83,109H330.77c2,0,6.86.26,9.5-1a11,11,0,0,0,4.5-4s3.57-4.76,4-5.5l4.42-6Z"></path><path class="cls-1" d="M223.51,106l-2.4-2.87h-2.68V106h-2.64v-9.1h6.38c2.33,0,4.14,1,4.14,3.11a3,3,0,0,1-2.4,2.9l2.68,3.09ZM222,101.24c1,0,1.64-.26,1.64-1.15S222.93,99,222,99h-3.57v2.29Z"></path><path class="cls-1" d="M245.8,104.29h-5L240,106h-2.78l4.7-9.1h2.9l4.71,9.1h-2.82Zm-.93-1.88-1.57-3.23-1.58,3.23Z"></path><path class="cls-1" d="M268.37,102.78l2.27,1.17a5.92,5.92,0,0,1-5.14,2.38c-3.43,0-5.74-1.78-5.74-4.85s2.31-4.85,5.85-4.85a5.84,5.84,0,0,1,5,2.37l-2.29,1.17a3,3,0,0,0-2.74-1.38c-1.87,0-3.12.95-3.12,2.69s1.25,2.69,3.12,2.69A3.08,3.08,0,0,0,268.37,102.78Z"></path><path class="cls-1" d="M282.27,106v-9.1h2.66V106Z"></path><path class="cls-1" d="M308.54,96.93V106h-2.33l-5.88-6v6h-2.56v-9.1h2.81L306,102.5V96.93Z"></path><path class="cls-1" d="M331.49,104.32a6.48,6.48,0,0,1-5.2,2c-3.73,0-6-1.76-6-4.85s2.31-4.85,6-4.85a7,7,0,0,1,4.82,1.68l-1.93,1.43a3.85,3.85,0,0,0-2.82-1c-2.21,0-3.42,1-3.42,2.75s1.25,2.77,3.46,2.77a3.74,3.74,0,0,0,2.63-.8v-.82h-3v-1.86h5.47Z"></path><path class="cls-1" d="M223.51,106l-2.4-2.87h-2.68V106h-2.64v-9.1h6.38c2.33,0,4.14,1,4.14,3.11a3,3,0,0,1-2.4,2.9l2.68,3.09ZM222,101.24c1,0,1.64-.26,1.64-1.15S222.93,99,222,99h-3.57v2.29Z"></path><path class="cls-1" d="M245.8,104.29h-5L240,106h-2.78l4.7-9.1h2.9l4.71,9.1h-2.82Zm-.93-1.88-1.57-3.23-1.58,3.23Z"></path><path class="cls-1" d="M268.37,102.78l2.27,1.17a5.92,5.92,0,0,1-5.14,2.38c-3.43,0-5.74-1.78-5.74-4.85s2.31-4.85,5.85-4.85a5.84,5.84,0,0,1,5,2.37l-2.29,1.17a3,3,0,0,0-2.74-1.38c-1.87,0-3.12.95-3.12,2.69s1.25,2.69,3.12,2.69A3.08,3.08,0,0,0,268.37,102.78Z"></path><path class="cls-1" d="M282.27,106v-9.1h2.66V106Z"></path><path class="cls-1" d="M308.54,96.93V106h-2.33l-5.88-6v6h-2.56v-9.1h2.81L306,102.5V96.93Z"></path><path class="cls-1" d="M331.49,104.32a6.48,6.48,0,0,1-5.2,2c-3.73,0-6-1.76-6-4.85s2.31-4.85,6-4.85a7,7,0,0,1,4.82,1.68l-1.93,1.43a3.85,3.85,0,0,0-2.82-1c-2.21,0-3.42,1-3.42,2.75s1.25,2.77,3.46,2.77a3.74,3.74,0,0,0,2.63-.8v-.82h-3v-1.86h5.47Z"></path><path class="cls-1" d="M223.51,106l-2.4-2.87h-2.68V106h-2.64v-9.1h6.38c2.33,0,4.14,1,4.14,3.11a3,3,0,0,1-2.4,2.9l2.68,3.09ZM222,101.24c1,0,1.64-.26,1.64-1.15S222.93,99,222,99h-3.57v2.29Z"></path><path class="cls-1" d="M245.8,104.29h-5L240,106h-2.78l4.7-9.1h2.9l4.71,9.1h-2.82Zm-.93-1.88-1.57-3.23-1.58,3.23Z"></path><path class="cls-1" d="M268.37,102.78l2.27,1.17a5.92,5.92,0,0,1-5.14,2.38c-3.43,0-5.74-1.78-5.74-4.85s2.31-4.85,5.85-4.85a5.84,5.84,0,0,1,5,2.37l-2.29,1.17a3,3,0,0,0-2.74-1.38c-1.87,0-3.12.95-3.12,2.69s1.25,2.69,3.12,2.69A3.08,3.08,0,0,0,268.37,102.78Z"></path><path class="cls-1" d="M282.27,106v-9.1h2.66V106Z"></path><path class="cls-1" d="M308.54,96.93V106h-2.33l-5.88-6v6h-2.56v-9.1h2.81L306,102.5V96.93Z"></path><path class="cls-1" d="M331.49,104.32a6.48,6.48,0,0,1-5.2,2c-3.73,0-6-1.76-6-4.85s2.31-4.85,6-4.85a7,7,0,0,1,4.82,1.68l-1.93,1.43a3.85,3.85,0,0,0-2.82-1c-2.21,0-3.42,1-3.42,2.75s1.25,2.77,3.46,2.77a3.74,3.74,0,0,0,2.63-.8v-.82h-3v-1.86h5.47Z"></path><polygon class="cls-1" points="293.28 83.48 292.28 84.98 310.27 84.98 311.52 83.48 293.28 83.48"></polygon><polygon class="cls-1" points="312.77 81.48 371.26 0.5 345.27 0 334.27 15 342.77 15 294.78 80.98 312.77 81.48"></polygon><path class="cls-2" d="M16.84,85H35.62L56.83,54.49,69.61,85H92.39l-.57-1.5h-14l-36-83h-4L52.58,35.74s.5,1-.5,1a1,1,0,0,1-1-1L36.05.5H31.47L49.08,39.74Z"></path><path class="cls-2" d="M44.08.5l35,80.73h11.5l-18-41.49L101.07.25H82.57l-18,25.49L54.43.25H49.58l8.5,20.5s0,1.5-1.5.5l-8.5-21h-4Z"></path><polygon class="cls-2" points="85.07 66.24 103.28 66.24 128.56 31.24 143.06 31.24 152.06 19.25 89.83 19.25 81.32 30.99 110.82 30.99 85.07 66.24"></polygon><path class="cls-2" d="M139.31,40.49l-8,11,13.93,14.75h14.92L146.81,52h7a15,15,0,0,0,11.49-2.5s6.5-4.5,7-6.5c0,0,7-10,7-11s6.5-11.49-3.5-12.49l-21-.5-9,12h16s6.49-1,3,3.5a10.17,10.17,0,0,1-6.49,6Z"></path><polygon class="cls-2" points="187.3 30.49 223.29 30.99 231.79 19.5 195.44 19.5 187.3 30.49"></polygon><polygon class="cls-2" points="175.03 47.49 198.55 47.49 206.8 35.99 183.5 35.99 175.03 47.49"></polygon><polygon class="cls-2" points="169.8 54.49 161.81 65.99 198.16 65.99 206.44 54.49 169.8 54.49"></polygon><polygon class="cls-2" points="233.63 19.28 199.8 66.2 218.17 66.2 252.23 19.28 233.63 19.28"></polygon><polygon class="cls-2" points="254.82 19.28 220.99 66.2 239.15 66.2 273.41 19.28 254.82 19.28"></polygon><polygon class="cls-2" points="276.44 19.28 242.6 66.2 260.88 66.2 294.71 19.28 276.44 19.28"></polygon><polygon class="cls-2" points="297.52 19.28 289.38 30.89 325.19 30.89 333.52 19.28 297.52 19.28"></polygon><polygon class="cls-2" points="285.34 35.43 276.77 47.53 300.87 47.53 309.56 35.93 285.34 35.43"></polygon><polygon class="cls-2" points="271.72 54.6 263.58 66.2 299.74 66.2 308.06 54.6 271.72 54.6"></polygon><polygon class="cls-2" points="11.34 92.48 14.89 92.48 3.34 108.48 0 108.48 11.34 92.48"></polygon><polygon class="cls-2" points="16.66 92.48 5.25 108.48 13.02 108.48 24.83 92.48 16.66 92.48"></polygon><polygon class="cls-2" points="27.16 92.48 14.89 108.48 28.01 108.48 39.47 92.48 27.16 92.48"></polygon><polygon class="cls-2" points="41.88 92.48 30.15 108.48 60.47 108.48 72.09 92.48 41.88 92.48"></polygon><path class="cls-1" d="M75.61,92.48,63.83,109H330.77c2,0,6.86.26,9.5-1a11,11,0,0,0,4.5-4s3.57-4.76,4-5.5l4.42-6Z"></path><path d="M223.51,106l-2.4-2.87h-2.68V106h-2.64v-9.1h6.38c2.33,0,4.14,1,4.14,3.11a3,3,0,0,1-2.4,2.9l2.68,3.09ZM222,101.24c1,0,1.64-.26,1.64-1.15S222.93,99,222,99h-3.57v2.29Z"></path><path d="M245.8,104.29h-5L240,106h-2.78l4.7-9.1h2.9l4.71,9.1h-2.82Zm-.93-1.88-1.57-3.23-1.58,3.23Z"></path><path d="M268.37,102.78l2.27,1.17a5.92,5.92,0,0,1-5.14,2.38c-3.43,0-5.74-1.78-5.74-4.85s2.31-4.85,5.85-4.85a5.84,5.84,0,0,1,5,2.37l-2.29,1.17a3,3,0,0,0-2.74-1.38c-1.87,0-3.12.95-3.12,2.69s1.25,2.69,3.12,2.69A3.08,3.08,0,0,0,268.37,102.78Z"></path><path d="M282.27,106v-9.1h2.66V106Z"></path><path d="M308.54,96.93V106h-2.33l-5.88-6v6h-2.56v-9.1h2.81L306,102.5V96.93Z"></path><path d="M331.49,104.32a6.48,6.48,0,0,1-5.2,2c-3.73,0-6-1.76-6-4.85s2.31-4.85,6-4.85a7,7,0,0,1,4.82,1.68l-1.93,1.43a3.85,3.85,0,0,0-2.82-1c-2.21,0-3.42,1-3.42,2.75s1.25,2.77,3.46,2.77a3.74,3.74,0,0,0,2.63-.8v-.82h-3v-1.86h5.47Z"></path><polygon class="cls-2" points="293.28 83.48 292.28 84.98 310.27 84.98 311.52 83.48 293.28 83.48"></polygon><polygon class="cls-2" points="312.77 81.48 371.26 0.5 345.27 0 334.27 15 342.77 15 294.78 80.98 312.77 81.48"></polygon></g></g></svg>