<svg xmlns="http://www.w3.org/2000/svg" width="942" height="884" viewBox="0 0 942 884" fill="none"><g clip-path="url(#clip0_1575_11122)"><path d="M107.63 272.8C104.9 289.48 95.9 301.74 83.48 301.74C71.06 301.74 61 288 61 271.14C61 254.28 74.4 238.86 86.82 238.86C99.24 238.86 110.52 255.07 107.63 272.8Z" stroke="#92F73E" stroke-width="22" stroke-linecap="round" stroke-linejoin="round"></path><path d="M315.07 82.6902C312.34 99.3702 303.34 111.63 290.92 111.63C278.5 111.63 268.43 97.9302 268.43 81.0002C268.43 64.0702 281.83 48.7202 294.25 48.7202C306.67 48.7202 318 65.0002 315.07 82.6902Z" stroke="#92F73E" stroke-width="22" stroke-linecap="round" stroke-linejoin="round"></path><path d="M859.659 65.3199C856.999 81.8799 847.999 93.9999 835.689 93.9999C823.379 93.9999 813.369 80.3999 813.369 63.6299C813.369 46.8599 826.669 31.6299 838.989 31.6299C851.309 31.6299 862.539 47.7199 859.659 65.3199Z" stroke="#92F73E" stroke-width="22" stroke-linecap="round" stroke-linejoin="round"></path><path d="M929.769 535.12C927.059 551.68 918.129 563.84 905.769 563.84C893.409 563.84 883.449 550.24 883.449 533.47C883.449 516.7 896.749 501.47 909.069 501.47C921.389 501.47 932.649 517.52 929.769 535.12Z" stroke="#92F73E" stroke-width="22" stroke-linecap="round" stroke-linejoin="round"></path><path d="M177.619 659.83C177.619 659.83 172.459 434.71 173.669 409.95C175.669 369.04 165.429 302.05 188.499 287.22C211.569 272.39 725.499 283.1 743.669 283.1C761.839 283.1 786.089 285.57 789.379 359.7C792.669 433.83 783.999 639.91 777.439 654.86C770.879 669.81 194.909 671.36 177.619 659.83Z" stroke="#92F73E" stroke-width="22" stroke-linecap="round" stroke-linejoin="round"></path><path d="M663.439 333.49C663.439 333.49 267.749 334.85 252.709 338.43C237.669 342.01 248.259 600.65 251.839 606.43C255.419 612.21 667.379 604.9 681.709 607.05C696.039 609.2 717.519 607.77 720.379 602.05C723.239 596.33 716.439 346.05 711.379 338.85" stroke="#92F73E" stroke-width="22" stroke-linecap="round" stroke-linejoin="round"></path><path d="M177.621 659.83C177.621 659.83 81.8706 814.39 79.4006 819.34C76.9306 824.29 84.3406 872.47 84.3406 872.47C84.3406 872.47 856.521 856.4 870.111 856.4C883.701 856.4 884.941 819.34 882.461 813.16C879.981 806.98 780.341 663.24 776.211 657.49" stroke="#92F73E" stroke-width="22" stroke-linecap="round" stroke-linejoin="round"></path><path d="M204.999 711.4C204.999 711.4 158.139 789.25 150.309 799.4C142.479 809.55 230.679 805.4 296.469 801.52C362.259 797.64 536.229 798.52 589.629 798.95C646.119 799.4 802.559 793.33 802.559 793.33C802.559 793.33 769.749 738.65 760.359 723.77C750.969 708.89 747.829 706.54 716.499 706.54C685.169 706.54 230.839 718.45 204.999 711.4Z" stroke="#92F73E" stroke-width="22" stroke-linecap="round" stroke-linejoin="round"></path><path d="M306.68 714.24L279.93 798.15" stroke="#92F73E" stroke-width="22" stroke-linecap="round" stroke-linejoin="round"></path><path d="M472.16 713.62V795.81" stroke="#92F73E" stroke-width="22" stroke-linecap="round" stroke-linejoin="round"></path><path d="M638.26 711.61L667.4 797.81" stroke="#92F73E" stroke-width="22" stroke-linecap="round" stroke-linejoin="round"></path><path d="M180.199 758.9C180.199 758.9 755.349 751.9 772.199 753.83" stroke="#92F73E" stroke-width="22" stroke-linecap="round" stroke-linejoin="round"></path><path d="M25.9297 537.83L55.7797 511.1L50.5297 586.6" stroke="#92F73E" stroke-width="22" stroke-linecap="round" stroke-linejoin="round"></path><path d="M11 37.73L40.85 11L35.61 86.5" stroke="#92F73E" stroke-width="22" stroke-linecap="round" stroke-linejoin="round"></path><path d="M869.25 255.02L897.73 229.52L892.72 301.54" stroke="#92F73E" stroke-width="22" stroke-linecap="round" stroke-linejoin="round"></path><path d="M518.961 135.95L544.661 112.94L543.691 184.95" stroke="#92F73E" stroke-width="22" stroke-linecap="round" stroke-linejoin="round"></path></g><defs><clipPath id="clip0_1575_11122"><rect width="941.23" height="883.46" fill="white"></rect></clipPath></defs></svg>