<svg xmlns="http://www.w3.org/2000/svg" width="163" height="170" viewBox="0 0 163 170" fill="none"><path d="M44.5969 85.1576C44.5969 85.1576 122.36 13.5792 148.065 19.7797C173.769 25.9802 81.1668 126.197 81.1668 126.197C81.1668 126.197 51.5901 114.964 44.5969 85.1576Z" stroke="#9D5CFF" stroke-width="5" stroke-linecap="round" stroke-linejoin="round"></path><path d="M53.5234 77.2009C53.5234 77.2009 60.9429 104.249 90.4168 115.923" stroke="#9D5CFF" stroke-width="5" stroke-linecap="round" stroke-linejoin="round"></path><path d="M57.9562 87.3474L48.1777 95.4807" stroke="#9D5CFF" stroke-width="5" stroke-linecap="round" stroke-linejoin="round"></path><path d="M64.4791 96.9817L54.5449 105.866" stroke="#9D5CFF" stroke-width="5" stroke-linecap="round" stroke-linejoin="round"></path><path d="M72.4802 105.17L62.7754 114.581" stroke="#9D5CFF" stroke-width="5" stroke-linecap="round" stroke-linejoin="round"></path><path d="M81.9355 111.838L73.6687 122.433" stroke="#9D5CFF" stroke-width="5" stroke-linecap="round" stroke-linejoin="round"></path><path d="M75.1433 59.1232C75.1433 59.1232 68.4138 54.3059 59.7361 59.1232C51.0584 63.9405 31.8542 75.8126 26.739 86.4453C26.739 86.4453 37.7072 82.6483 44.5908 85.1579" stroke="#9D5CFF" stroke-width="5" stroke-linecap="round" stroke-linejoin="round"></path><path d="M108.592 96.2507C108.592 96.2507 113.318 103.044 108.391 111.658C103.465 120.272 91.3323 139.31 80.6328 144.284C80.6328 144.284 84.5702 133.367 82.1581 126.451" stroke="#9D5CFF" stroke-width="5" stroke-linecap="round" stroke-linejoin="round"></path><path d="M53.6684 104.704L32.6855 122.933" stroke="#9D5CFF" stroke-width="5" stroke-linecap="round" stroke-linejoin="round"></path><path d="M56.1672 119.125L43.0215 132.771" stroke="#9D5CFF" stroke-width="5" stroke-linecap="round" stroke-linejoin="round"></path><path d="M32.6856 122.933C32.6856 122.933 24.8005 116.726 21.4144 123.311C18.3501 129.272 24.6208 130.996 24.6208 130.996C24.6208 130.996 16.4909 131.191 16.1434 137.457C15.7959 143.722 24.1192 143.294 24.1192 143.294C24.1192 143.294 23.9275 149.218 27.2417 151.739C31.0079 154.6 36.9585 155.636 41.0705 148.41" stroke="#9D5CFF" stroke-width="5" stroke-linecap="round" stroke-linejoin="round"></path><path d="M52.349 132.98C52.349 132.98 61.1979 134.773 59.6794 140.935C58.1609 147.098 51.6642 146.708 51.6642 146.708C51.6642 146.708 58.4246 152.563 54.2441 159.719C50.2399 166.566 38.8232 161.246 36.0704 159.532C36.0704 159.532 36.7467 168.434 25.3847 167.248C14.0228 166.061 14.3309 155.899 14.3309 155.899" stroke="#9D5CFF" stroke-width="5" stroke-linecap="round" stroke-linejoin="round"></path><path d="M9.13179 135.683C9.13179 135.683 -0.626097 129.986 4.47711 121.435C7.84957 115.801 16.7412 117.684 16.7412 117.684C16.7412 117.684 18.4429 110.885 24.3147 111.917C31.6571 113.208 32.5182 119.081 32.5182 119.081" stroke="#9D5CFF" stroke-width="5" stroke-linecap="round" stroke-linejoin="round"></path><path d="M88.9672 67.8677C90.6569 87.303 118.9 79.495 115.207 62.0746C112.492 49.2575 87.3957 49.7968 88.9672 67.8677Z" stroke="#9D5CFF" stroke-width="5" stroke-linecap="round" stroke-linejoin="round"></path><path d="M121.874 26.936C121.874 26.936 127.138 41.8468 143.364 48.15" stroke="#9D5CFF" stroke-width="5" stroke-linecap="round" stroke-linejoin="round"></path><path d="M160.754 118.169C161.994 118.169 163 117.163 163 115.923C163 114.683 161.994 113.677 160.754 113.677C159.513 113.677 158.508 114.683 158.508 115.923C158.508 117.163 159.513 118.169 160.754 118.169Z" fill="#9D5CFF"></path><path d="M137.309 7.66637C138.55 7.66637 139.555 6.66079 139.555 5.42034C139.555 4.1799 138.55 3.17432 137.309 3.17432C136.069 3.17432 135.063 4.1799 135.063 5.42034C135.063 6.66079 136.069 7.66637 137.309 7.66637Z" fill="#9D5CFF"></path><path d="M86.0683 2.6438C86.0683 2.6438 85.6934 8.12191 85.6934 10.2909V14.8549" stroke="#9D5CFF" stroke-width="5" stroke-linecap="round" stroke-linejoin="round"></path><path d="M80.386 8.74985C80.8431 8.63515 83.1713 8.62659 85.811 8.74129C88.4508 8.85599 91.7496 9.16071 91.7496 9.16071" stroke="#9D5CFF" stroke-width="5" stroke-linecap="round" stroke-linejoin="round"></path><path d="M152.447 79.9924V92.8865" stroke="#9D5CFF" stroke-width="5" stroke-linecap="round" stroke-linejoin="round"></path><path d="M146.627 86.7222C147.084 86.6076 149.323 86.4946 151.963 86.6075C154.603 86.7205 158.504 87.1879 158.504 87.1879" stroke="#9D5CFF" stroke-width="5" stroke-linecap="round" stroke-linejoin="round"></path><path d="M137.309 128.141V141.035" stroke="#9D5CFF" stroke-width="5" stroke-linecap="round" stroke-linejoin="round"></path><path d="M131.488 134.872C131.945 134.757 134.185 134.644 136.824 134.757C139.464 134.87 143.366 135.337 143.366 135.337" stroke="#9D5CFF" stroke-width="5" stroke-linecap="round" stroke-linejoin="round"></path><path d="M27.4213 13.2302C27.4213 13.2302 26.6218 18.823 26.6218 20.9903V25.556" stroke="#9D5CFF" stroke-width="5" stroke-linecap="round" stroke-linejoin="round"></path><path d="M20.8015 19.3931C21.2586 19.2784 23.4978 19.1655 26.1375 19.2784C28.7773 19.3914 32.6787 19.8588 32.6787 19.8588" stroke="#9D5CFF" stroke-width="5" stroke-linecap="round" stroke-linejoin="round"></path></svg>