<svg xmlns="http://www.w3.org/2000/svg" width="161" height="150" viewBox="0 0 161 150" fill="none"><path d="M5.13178 108.676C5.13178 108.676 14.4969 56.1497 23.6241 51.9126C32.7512 47.6755 100.166 48.264 107.015 52.5638C114.018 56.9618 121.326 119.202 119.726 122.847C117.272 128.406 102.618 130.116 87.7842 131.032C54.8278 133.07 33.4652 128.197 27.9271 129.826C22.3891 131.455 15.2237 147.683 15.2237 147.683C15.2237 147.683 15.5453 127.813 12.9436 125.859C12.9436 125.859 6.02906 124.719 2.76477 122.112" stroke="#2456E8" stroke-width="5" stroke-linecap="round" stroke-linejoin="round"></path><path d="M52.0106 84.3018L52.321 112.042L43.0684 112.872L42.7098 84.8903L52.0106 84.3018Z" stroke="#2456E8" stroke-width="5" stroke-linecap="round" stroke-linejoin="round"></path><path d="M52.8146 83.8171C52.8146 83.8171 61.3548 71.1668 63.9662 64.9292C65.6241 60.9719 72.1672 63.1057 72.7139 71.8839C73.2606 80.6621 70.9933 80.8149 72.4373 83.0034C73.8813 85.192 84.4557 82.0772 86.7487 84.8687C89.0418 87.6603 87.1121 111.284 84.9284 112.89C82.7447 114.497 61.506 114.048 60.0636 114.469C58.6212 114.891 52.3209 112.041 52.3209 112.041" stroke="#2456E8" stroke-width="5" stroke-linecap="round" stroke-linejoin="round"></path><path d="M116.158 77.4687C125.407 76.7467 131.756 75.8494 134.287 76.5955C139.825 78.2245 146.908 92.5568 146.908 92.5568C146.908 92.5568 146.587 72.6864 149.188 70.7327C149.188 70.7327 154.99 69.6537 158.248 67.0487C158.248 67.0487 159.964 58.3654 158.623 50.1114C156.455 36.7648 154.512 8.64206 145.392 4.40652C136.271 0.170988 69.9931 2.0363 63.1461 6.33615C57.4762 9.89632 54.8729 32.1803 52.3209 49.0228" stroke="#2456E8" stroke-width="5" stroke-linecap="round" stroke-linejoin="round"></path><path d="M117.992 55.3549C124.115 49.4583 126.942 36.2323 126.934 31.9485C126.926 27.6647 123.91 21.4368 116.407 21.3066C108.904 21.1763 103.634 30.1089 103.634 30.1089C103.634 30.1089 96.8804 22.0688 90.1636 22.8101C83.4469 23.5514 79.4011 33.0291 83.1896 40.0256C86.9781 47.0221 90.2649 49.9021 90.2649 49.9021" stroke="#2456E8" stroke-width="5" stroke-linecap="round" stroke-linejoin="round"></path></svg>