<svg xmlns="http://www.w3.org/2000/svg" width="136" height="135" viewBox="0 0 136 135" fill="none"><path d="M128 134C131.866 134 135 130.866 135 127C135 123.134 131.866 120 128 120C124.134 120 121 123.134 121 127C121 130.866 124.134 134 128 134Z" fill="#DAF464" stroke="black" stroke-width="2" stroke-linecap="round" stroke-linejoin="round"></path><path d="M99.7677 20.6778L8.65234 56.0693L36.8846 128.659L128 93.2673L99.7677 20.6778Z" fill="#F1F4F1" stroke="black" stroke-width="2" stroke-linecap="round" stroke-linejoin="round"></path><path d="M92.1154 1.0001L1 36.3916L8.65027 56.0616L99.7657 20.6701L92.1154 1.0001Z" fill="#54FA81" stroke="black" stroke-width="2" stroke-linecap="round" stroke-linejoin="round"></path><path d="M73.4922 8.23633L81.099 27.782" stroke="black" stroke-width="2" stroke-linecap="round" stroke-linejoin="round"></path><path d="M80.334 11.3594L93.4042 17.1077" stroke="black" stroke-width="2" stroke-linecap="round" stroke-linejoin="round"></path><path d="M89.7462 7.70215L83.9941 20.7638" stroke="black" stroke-width="2" stroke-linecap="round" stroke-linejoin="round"></path><path d="M48.2157 86.238L35.1992 91.2939L44.0261 113.989L57.0425 108.933L48.2157 86.238Z" fill="#9E86F3" stroke="black" stroke-width="2" stroke-linecap="round" stroke-linejoin="round"></path><path d="M63.0145 68.6101L49.998 73.666L62.8383 106.68L75.8548 101.624L63.0145 68.6101Z" fill="#9E86F3" stroke="black" stroke-width="2" stroke-linecap="round" stroke-linejoin="round"></path><path d="M78.3759 52.3962L65.3594 57.4521L81.6613 99.3669L94.6778 94.3109L78.3759 52.3962Z" fill="#9E86F3" stroke="black" stroke-width="2" stroke-linecap="round" stroke-linejoin="round"></path><path d="M93.6825 36.07L80.666 41.126L100.474 92.0556L113.491 86.9996L93.6825 36.07Z" fill="#9E86F3" stroke="black" stroke-width="2" stroke-linecap="round" stroke-linejoin="round"></path></svg>