<svg xmlns="http://www.w3.org/2000/svg" width="175" height="176" viewBox="0 0 175 176" fill="none"><path d="M80.4605 23.9465C59.3193 36.3837 52.2563 63.624 64.68 84.7761C77.1036 105.928 104.324 112.989 125.465 100.552C146.607 88.1145 153.67 60.8741 141.246 39.7221C128.822 18.5701 101.602 11.5093 80.4605 23.9465ZM86.5166 34.2612C101.966 25.1693 121.854 30.3273 130.927 45.7831C140.009 61.2406 134.841 81.1416 119.402 90.2261C103.952 99.318 84.064 94.16 74.9911 78.7042C65.9091 63.2467 71.0779 43.3457 86.5166 34.2612Z" fill="#6637EA" stroke="black" stroke-width="2" stroke-linecap="round" stroke-linejoin="round"></path><path d="M75.1179 96.4869L63.4856 108.077L54.1073 98.6492L65.6693 87.1317C66.3391 86.2776 67.5857 85.9474 69.184 86.3846C72.0938 87.168 75.0804 90.1582 75.8537 93.0631C76.2684 94.6203 75.9515 95.8243 75.1254 96.4978L75.1179 96.4869Z" fill="#F76612" stroke="black" stroke-width="2" stroke-linecap="round" stroke-linejoin="round"></path><path d="M78.1402 85.6102C80.7387 88.2222 84.0678 89.1217 85.5759 87.6194C87.084 86.1171 86.2 82.7818 83.6015 80.1698C81.003 77.5579 77.6739 76.6583 76.1658 78.1606C74.6577 79.663 75.5417 82.9983 78.1402 85.6102Z" fill="#F76612" stroke="black" stroke-width="2" stroke-linecap="round" stroke-linejoin="round"></path><path d="M90.0977 28.7802C106.09 19.3706 126.683 24.7156 136.083 40.7157C145.482 56.7158 140.135 77.3244 124.143 86.734C108.151 96.1436 87.5578 90.7986 78.1585 74.7985C68.7591 58.7984 74.1058 38.1898 90.0977 28.7802Z" fill="#6637EA" stroke="black" stroke-width="2" stroke-linecap="round" stroke-linejoin="round"></path><path d="M53.27 93.6162C54.359 92.2888 56.3261 91.8067 58.8356 92.4974C63.4838 93.7817 68.2245 98.5762 69.4262 103.221C70.0803 105.743 69.5513 107.687 68.191 108.736L33.613 142.805C32.5355 144.173 30.5451 144.679 28.0005 143.973C23.3524 142.688 18.6117 137.894 17.41 133.249C16.7691 130.757 17.2765 128.829 18.6 127.773L53.2717 93.607L53.27 93.6162Z" fill="#F76612" stroke="black" stroke-width="2" stroke-linecap="round" stroke-linejoin="round"></path><path d="M84.6187 19.4543C63.4775 31.8915 56.4145 59.1319 68.8382 80.2839C81.2618 101.436 108.482 108.497 129.624 96.0595C150.765 83.6223 157.828 56.3819 145.404 35.2299C132.98 14.0779 105.76 7.01712 84.6187 19.4543ZM90.6748 29.769C106.124 20.6771 126.013 25.8351 135.085 41.2909C144.168 56.7484 138.999 76.6494 123.56 85.7339C108.11 94.8258 88.2222 89.6678 79.1493 74.212C70.0764 58.7563 75.2361 38.8535 90.6748 29.769Z" fill="#8055FF" stroke="black" stroke-width="2" stroke-linecap="round" stroke-linejoin="round"></path><path d="M89.7134 33.9491C103.779 25.6746 121.884 30.3708 130.149 44.4437C138.415 58.5167 133.717 76.6346 119.652 84.9092C105.586 93.1837 87.4811 88.4875 79.2156 74.4146C70.95 60.3417 75.6477 42.2237 89.7134 33.9491Z" fill="white" stroke="black" stroke-width="2" stroke-linecap="round" stroke-linejoin="round"></path><path d="M113.674 39.0463C103.648 39.5344 95.9164 48.0519 96.4041 58.0705C96.8919 68.0892 105.415 75.8152 115.441 75.3271C125.466 74.839 133.198 66.3217 132.711 56.303C132.223 46.2843 123.7 38.5582 113.674 39.0463Z" fill="black" stroke="black" stroke-width="2" stroke-linecap="round" stroke-linejoin="round"></path><path d="M119.716 46.6421C114.243 46.9086 110.021 51.5588 110.287 57.0287C110.554 62.4986 115.207 66.7168 120.681 66.4503C126.154 66.1838 130.376 61.5336 130.11 56.0637C129.843 50.5938 125.19 46.3756 119.716 46.6421Z" fill="white" stroke="black" stroke-width="2" stroke-linecap="round" stroke-linejoin="round"></path><path d="M33.6143 142.805C38.7324 137.684 23.7195 122.651 18.6014 127.773L33.6143 142.805Z" fill="#F76612"></path><path d="M33.6143 142.805C38.7324 137.684 23.7195 122.651 18.6014 127.773" stroke="black" stroke-width="2" stroke-linecap="round" stroke-linejoin="round"></path><path d="M123.658 138.708C132.923 149.169 142.307 147.675 149.84 146.837C155.368 146.218 161.583 143.166 162.244 137.636C162.741 133.494 159.403 129.385 155.295 128.665C151.187 127.946 146.84 130.412 145.003 134.163C143.166 137.915 143.755 142.619 146.13 146.044C148.872 150 153.646 152.187 158.428 152.76C163.794 153.398 169.32 152.072 173.92 149.256" stroke="black" stroke-width="2" stroke-linecap="round" stroke-linejoin="round"></path><path d="M105.999 131.382C110.825 137.233 119.081 139.366 126.617 138.533C132.146 137.914 138.361 134.863 139.022 129.332C139.519 125.19 136.181 121.081 132.073 120.361C127.965 119.642 123.618 122.108 121.781 125.86C119.949 129.607 120.322 134.532 123.657 138.709" stroke="black" stroke-width="2" stroke-linecap="round" stroke-linejoin="round"></path><circle cx="9" cy="9" r="9" transform="matrix(-1 0 0 1 19 57)" fill="#E9FF36" stroke="black" stroke-width="2"></circle></svg>