<svg xmlns="http://www.w3.org/2000/svg" width="89" height="86" viewBox="0 0 89 86" fill="none"><path d="M57.058 44.7131C53.8422 49.9647 55.4926 56.8289 60.7442 60.0446C65.9958 63.2604 72.8599 61.6101 76.0757 56.3585C79.2915 51.1069 77.6412 44.2427 72.3896 41.0269C67.138 37.8111 60.2738 39.4615 57.058 44.7131Z" fill="white" fill-opacity="0.8" stroke="black" stroke-width="2" stroke-linecap="round" stroke-linejoin="round"></path><path d="M4.93765 42.4522C2.41982 46.564 3.71198 51.9383 7.82377 54.4562C11.9356 56.974 17.3099 55.6819 19.8278 51.5701C22.3456 47.4583 21.0535 42.0839 16.9417 39.5661C12.8299 37.0482 7.45549 38.3404 4.93765 42.4522Z" fill="#B6E9FF" stroke="black" stroke-width="2" stroke-linecap="round" stroke-linejoin="round"></path><path d="M39.754 14.3949C37.6688 17.8002 38.7389 22.2511 42.1442 24.3363C45.5495 26.4216 50.0005 25.3514 52.0857 21.9461C54.1709 18.5408 53.1008 14.0899 49.6955 12.0047C46.2902 9.91944 41.8392 10.9896 39.754 14.3949Z" fill="#E9FF36" stroke="black" stroke-width="2" stroke-linecap="round" stroke-linejoin="round"></path><path d="M55.4648 49.6943L21.1103 47.0672" stroke="black" stroke-width="2" stroke-linecap="round" stroke-linejoin="round"></path><path d="M49.9627 24.1507L61.0593 40.8423" stroke="black" stroke-width="2" stroke-linecap="round" stroke-linejoin="round"></path></svg>