<svg xmlns="http://www.w3.org/2000/svg" viewBox="0 0 73 67" fill="none"><path fill="#000" stroke="#000" stroke-linecap="round" stroke-linejoin="round" stroke-miterlimit="10" stroke-width="1.667" d="M69.006 42.318c-6.57 16.229-25.886 26.52-43.144 23.116-7.995-1.584-14.17-5.938-17.811-11.637-1.663-2.692-5.067-9.104-5.067-9.104s1.425-9.658 3.563-14.882C13.117 13.582 32.433 3.29 49.69 6.695c5.7 1.108 13.458 4.83 13.458 4.83s4.75 7.045 6.016 9.974c2.692 6.174 2.85 13.457-.158 20.82Z"></path><path fill="#FFFF6C" stroke="#000" stroke-linecap="round" stroke-linejoin="round" stroke-miterlimit="10" stroke-width="1.667" d="M48.118 56.81c16.956-8.806 24.789-27.331 17.494-41.377-7.294-14.046-26.954-18.294-43.91-9.489C4.746 14.75-3.087 33.275 4.208 47.322c7.294 14.046 26.954 18.294 43.91 9.488Z"></path><path stroke="#000" stroke-linecap="round" stroke-linejoin="round" stroke-miterlimit="10" stroke-width="1.667" d="M56.103 22.29 27.367 43.189 19.451 26.01"></path></svg>