<svg viewBox="0 0 200 200" xmlns="http://www.w3.org/2000/svg" role="img" aria-label="AP code-tag monogram monochrome">
  <g fill="none" stroke="currentColor" stroke-width="8.5" stroke-linecap="round" stroke-linejoin="round"><path d="M46 67L30 100L46 133"/><path d="M160 67L176 100L160 133"/></g>
  <path d="M56 140L75 58H90L109 140H95L91 119H74L70 140ZM78 104H88L83 80Z" fill="currentColor"/>
  <path d="M112 58H129C143 58 150 68 150 83C150 98 142 108 128 108H125V140H112ZM125 72V95H128C134 95 137 91 137 83C137 76 134 72 128 72Z" fill="currentColor"/>
</svg>
