<svg viewBox="0 0 620 160" xmlns="http://www.w3.org/2000/svg" role="img" aria-label="Abhijit Pramanik AP logo lockup">
  <defs><linearGradient id="bg" x1="0" y1="0" x2="0" y2="1"><stop stop-color="#1b1c20"/><stop offset="1" stop-color="#090b0f"/></linearGradient><linearGradient id="gold" x1="0" y1="0" x2="1" y2="1"><stop stop-color="#f5e2b8"/><stop offset=".48" stop-color="#f1c45a"/><stop offset="1" stop-color="#b77f25"/></linearGradient></defs>
  <g transform="translate(14 14) scale(.66)"><rect x="20" y="20" width="160" height="160" rx="38" fill="url(#bg)"/><rect x="22" y="22" width="156" height="156" rx="36" fill="none" stroke="url(#gold)" stroke-width="3"/><g fill="none" stroke="url(#gold)" stroke-width="8.5" stroke-linecap="round" stroke-linejoin="round"><path d="M46 67L30 100L46 133"/><path d="M160 67L176 100L160 133"/></g><path d="M56 140L75 58H90L109 140H95L91 119H74L70 140ZM78 104H88L83 80Z" fill="#f7f3e9"/><path d="M112 58H129C143 58 150 68 150 83C150 98 142 108 128 108H125V140H112ZM125 72V95H128C134 95 137 91 137 83C137 76 134 72 128 72Z" fill="url(#gold)"/></g>
  <text x="166" y="77" font-family="Fraunces, Georgia, serif" font-size="40" font-weight="600" letter-spacing="-.8" fill="#f5f2ea">Abhijit Pramanik</text>
  <text x="168" y="108" font-family="Inter, Arial, sans-serif" font-size="14" font-weight="600" letter-spacing="2.2" fill="#d8a73e">PROOF-BACKED DIGITAL WORK</text>
</svg>
