<svg viewBox="0 0 200 200" xmlns="http://www.w3.org/2000/svg" role="img" aria-label="Archived original AP code-tag monogram">
  <defs>
    <linearGradient id="apBase" x1="0" y1="0" x2="0" y2="1"><stop offset="0" stop-color="#1b1c20"/><stop offset="0.55" stop-color="#101216"/><stop offset="1" stop-color="#0a0c10"/></linearGradient>
    <linearGradient id="apGold" x1="0" y1="0" x2="0.85" y2="1"><stop offset="0" stop-color="#f5e2b8"/><stop offset="0.45" stop-color="#f1c45a"/><stop offset="1" stop-color="#c08c2a"/></linearGradient>
    <linearGradient id="apGoldBright" x1="0" y1="0" x2="0" y2="1"><stop offset="0" stop-color="#fbe6bd"/><stop offset="1" stop-color="#f1c45a"/></linearGradient>
    <linearGradient id="apRing" x1="0" y1="0" x2="0" y2="1"><stop offset="0" stop-color="#f5e2b8"/><stop offset="0.5" stop-color="#d8a73e"/><stop offset="1" stop-color="#8a6418"/></linearGradient>
    <radialGradient id="apGlow" cx="0.5" cy="0.40" r="0.62"><stop offset="0" stop-color="#f1c45a" stop-opacity="0.30"/><stop offset="0.55" stop-color="#d8a73e" stop-opacity="0.10"/><stop offset="1" stop-color="#d8a73e" stop-opacity="0"/></radialGradient>
    <linearGradient id="apSheen" x1="0" y1="0" x2="0" y2="1"><stop offset="0" stop-color="#ffffff" stop-opacity="0.16"/><stop offset="0.32" stop-color="#ffffff" stop-opacity="0"/></linearGradient>
    <filter id="apMarkSoft" x="-20%" y="-20%" width="140%" height="140%"><feGaussianBlur stdDeviation="0.6" result="b"/><feMerge><feMergeNode in="b"/><feMergeNode in="SourceGraphic"/></feMerge></filter>
  </defs>
  <rect x="14" y="14" width="172" height="172" rx="46" fill="url(#apGlow)"/><rect x="22" y="22" width="156" height="156" rx="38" fill="url(#apBase)"/><rect x="22" y="22" width="156" height="156" rx="38" fill="url(#apGlow)"/><rect x="22" y="22" width="156" height="156" rx="38" fill="url(#apSheen)"/>
  <rect x="25" y="25" width="150" height="150" rx="35" fill="none" stroke="#000" stroke-opacity=".45" stroke-width="1.5"/><rect x="23.25" y="23.25" width="153.5" height="153.5" rx="36.75" fill="none" stroke="url(#apRing)" stroke-width="3"/><rect x="23.25" y="23.25" width="153.5" height="153.5" rx="36.75" fill="none" stroke="#fbeed0" stroke-opacity=".5" stroke-width=".9"/>
  <g fill="none" stroke="url(#apGoldBright)" stroke-width="10" stroke-linecap="round" stroke-linejoin="round" filter="url(#apMarkSoft)"><polyline points="58,72 37,100 58,128"/><polyline points="146,72 167,100 146,128"/><line x1="131" y1="68" x2="116" y2="132"/></g>
  <g filter="url(#apMarkSoft)"><path d="M72 130L85 70H93L106 130H96.5L93.6 116H84.4L81.5 130ZM86.1 104H91.9L89 89.8Z" fill="#f7f3e9"/><path d="M107 70H122C133 70 139.5 77.5 139.5 88S133 106 122 106H116V130H107ZM116 78.2V97.8H121C126.6 97.8 130 94 130 88S126.6 78.2 121 78.2Z" fill="url(#apGold)"/></g>
</svg>
