<svg viewBox="0 0 200 200" xmlns="http://www.w3.org/2000/svg" role="img" aria-label="Faithful refinement of the original AP code-tag logo">
  <defs>
    <linearGradient id="bg" x1="0" y1="0" x2="0" y2="1"><stop stop-color="#1b1c20"/><stop offset="1" stop-color="#090b0f"/></linearGradient>
    <linearGradient id="gold" x1="0" y1="0" x2="1" y2="1"><stop stop-color="#f5e2b8"/><stop offset=".48" stop-color="#f1c45a"/><stop offset="1" stop-color="#b77f25"/></linearGradient>
  </defs>
  <rect x="20" y="20" width="160" height="160" rx="38" fill="url(#bg)"/><rect x="22" y="22" width="156" height="156" rx="36" fill="none" stroke="url(#gold)" stroke-width="3"/>
  <g fill="none" stroke="url(#gold)" stroke-width="9" stroke-linecap="round" stroke-linejoin="round"><path d="M54 67L34 100L54 133"/><path d="M151 67L171 100L151 133"/><path d="M140 65L132 136"/></g>
  <path d="M61 138L78 62H92L109 138H96L92 119H78L74 138ZM81 105H89L85 82Z" fill="#f7f3e9"/>
  <path d="M105 62H125C141 62 149 70 149 84C149 98 140 107 125 107H119V138H105ZM119 75V95H124C132 95 136 91 136 84C136 78 132 75 124 75Z" fill="url(#gold)"/>
</svg>
