<svg viewBox="0 0 200 200" xmlns="http://www.w3.org/2000/svg" role="img" aria-label="Integrated-slash refinement of the original AP code-tag logo">
  <defs>
    <linearGradient id="bg" x1="0" y1="0" x2="0" y2="1"><stop stop-color="#1b1c20"/><stop offset="1" stop-color="#090b0f"/></linearGradient>
    <linearGradient id="gold" x1="0" y1="0" x2="1" y2="1"><stop stop-color="#f5e2b8"/><stop offset=".48" stop-color="#f1c45a"/><stop offset="1" stop-color="#b77f25"/></linearGradient>
  </defs>
  <rect x="20" y="20" width="160" height="160" rx="38" fill="url(#bg)"/><rect x="22" y="22" width="156" height="156" rx="36" fill="none" stroke="url(#gold)" stroke-width="3"/>
  <g fill="none" stroke="url(#gold)" stroke-width="9" stroke-linecap="round" stroke-linejoin="round"><path d="M49 65L29 100L49 135"/><path d="M155 65L175 100L155 135"/></g>
  <path d="M55 140L77 58H91L113 140H97L93 119H75L70 140ZM79 104H90L84.5 80Z" fill="#f7f3e9"/>
  <path d="M108 58H130C146 58 154 68 154 83C154 98 145 108 129 108H122V140H108ZM122 72V95H128C136 95 140 91 140 83C140 76 136 72 128 72Z" fill="url(#gold)"/>
  <path d="M99 136L112 62" fill="none" stroke="url(#gold)" stroke-width="5" stroke-linecap="round"/>
</svg>
